<?xml version="1.0" standalone="no"?>
<!DOCTYPE svg PUBLIC "-//W3C//DTD SVG 20010904//EN"
 "http://www.w3.org/TR/2001/REC-SVG-20010904/DTD/svg10.dtd">
<svg version="1.0" xmlns="http://www.w3.org/2000/svg"
 width="120.000000pt" height="120.000000pt" viewBox="0 0 120.000000 120.000000"
 preserveAspectRatio="xMidYMid meet">
<metadata>
Created by potrace 1.14, written by Peter Selinger 2001-2017
</metadata>
<g transform="translate(0.000000,120.000000) scale(0.100000,-0.100000)"
fill="#000000" stroke="none">
<path d="M630 1083 c-47 -61 -63 -84 -79 -120 -6 -13 -14 -23 -19 -23 -11 0
-72 69 -72 81 0 9 -15 13 -40 9 -15 -2 -70 -57 -70 -70 0 -4 -9 -17 -20 -30
-11 -13 -20 -28 -20 -35 0 -16 -55 -67 -63 -58 -4 3 -7 1 -7 -5 0 -7 -5 -12
-10 -12 -24 0 -71 -47 -96 -94 -22 -41 -27 -65 -28 -135 -2 -99 10 -151 64
-267 30 -62 50 -91 86 -121 26 -21 55 -46 66 -55 10 -10 19 -17 21 -16 1 1 34
-11 72 -26 135 -54 263 -46 414 27 61 30 159 122 183 172 5 11 18 36 28 55 19
35 26 96 12 116 -4 5 -17 17 -29 25 l-22 15 25 27 c31 34 36 54 37 137 0 78
-27 138 -97 214 -38 41 -49 47 -71 42 -14 -4 -24 -10 -21 -14 2 -4 -2 -13 -10
-20 -8 -7 -14 -9 -15 -5 -5 52 -35 106 -99 176 -34 37 -65 67 -69 67 -3 0 -26
-26 -51 -57z m-370 -366 c0 -50 27 -98 82 -149 42 -37 68 -40 68 -7 0 27 15
24 28 -6 17 -36 48 -31 91 14 53 57 61 69 61 82 0 7 9 3 20 -9 12 -12 25 -22
30 -22 8 0 23 32 25 52 1 21 14 15 23 -11 6 -17 8 -31 4 -31 -4 0 0 -5 8 -10
10 -6 20 -4 30 5 19 18 33 9 50 -33 7 -19 20 -40 28 -48 17 -17 13 -23 -19
-29 -140 -28 -384 -24 -443 7 -100 51 -149 146 -115 222 16 35 29 23 29 -27z
m570 -274 c0 -12 -44 -30 -60 -25 -8 3 1 10 21 17 19 7 35 13 37 14 1 0 2 -2
2 -6z m-70 -39 c0 -2 -7 -4 -15 -4 -8 0 -15 4 -15 10 0 5 7 7 15 4 8 -4 15 -8
15 -10z m-44 -11 c-4 -5 -11 -8 -14 -9 -4 0 -19 -6 -34 -12 -36 -15 -139 -46
-158 -47 -8 -1 -36 -5 -62 -9 -43 -7 -115 0 -105 11 3 2 43 6 89 7 45 1 93 8
106 15 12 6 27 9 32 6 5 -3 11 -1 14 4 5 7 42 19 78 25 3 1 10 4 14 9 4 4 16
7 27 7 11 0 17 -3 13 -7z m114 -43 c-75 -66 -210 -147 -240 -145 -8 0 -31 -5
-50 -11 -29 -10 -36 -9 -47 5 -12 14 -12 14 -8 0 5 -14 -2 -15 -43 -13 -27 2
-62 11 -78 19 l-29 16 35 -6 c69 -11 101 -12 106 -4 3 5 9 7 13 5 4 -3 27 0
52 5 24 6 52 12 63 15 10 2 29 10 42 19 13 8 24 12 24 9 0 -4 8 0 18 8 9 9 33
24 52 33 19 10 43 27 53 38 9 11 17 17 17 13 0 -4 10 0 22 8 37 26 35 18 -2
-14z m-510 -13 c13 -5 13 -6 -1 -6 -8 -1 -24 6 -35 15 -19 15 -19 15 1 6 11
-5 27 -12 35 -15z"/>
</g>
</svg>
